<?xml version="1.0" encoding="utf-8"?>
<!-- Generator: Adobe Illustrator 16.0.4, SVG Export Plug-In . SVG Version: 6.00 Build 0)  -->
<!DOCTYPE svg PUBLIC "-//W3C//DTD SVG 1.1//EN" "http://www.w3.org/Graphics/SVG/1.1/DTD/svg11.dtd">
<svg version="1.1" id="レイヤー_1" xmlns="http://www.w3.org/2000/svg" xmlns:xlink="http://www.w3.org/1999/xlink" x="0px"
	 y="0px" width="42px" height="140px" viewBox="0 0 42 140" enable-background="new 0 0 42 140" xml:space="preserve">
<symbol  id="新規シンボル" viewBox="-19.231 -6.748 38.464 13.497">
	<g>
		<g>
			<path d="M-19.231,0C-13.96-4.219-7.277-6.748,0-6.748S13.961-4.219,19.232,0C13.961,4.22,7.277,6.749,0,6.749
				S-13.96,4.22-19.231,0z"/>
		</g>
	</g>
</symbol>
<g>
	<g>
		<path d="M28.893,11.053c0,0-0.213,0.463-0.615,1.33c-0.387,0.871-1.029,2.13-1.664,3.779c-0.324,0.824-0.719,1.72-1.084,2.725
			c-0.358,1.008-0.745,2.099-1.159,3.264c-0.368,1.181-0.76,2.437-1.173,3.761c-0.397,1.328-0.747,2.746-1.149,4.213
			c-0.372,1.476-0.704,3.027-1.079,4.624c-0.307,1.613-0.657,3.273-0.951,4.992c-0.569,3.441-1.115,7.082-1.459,10.873
			c-0.393,3.786-0.618,7.715-0.746,11.708c-0.111,3.994-0.089,8.054,0.063,12.109c0.178,4.053,0.436,8.104,0.885,12.068
			c0.411,3.971,0.981,7.857,1.652,11.594c0.647,3.74,1.487,7.311,2.331,10.678c0.918,3.348,1.834,6.498,2.888,9.326
			c0.998,2.85,2.115,5.373,3.139,7.586c0.559,1.08,1.08,2.09,1.562,3.025c0.529,0.902,1.018,1.73,1.457,2.48
			c0.963,1.436,1.711,2.566,2.307,3.266c0.564,0.723,0.865,1.107,0.865,1.107l0.07,0.09c0.486,0.621,0.375,1.521-0.246,2.008
			c-0.623,0.486-1.523,0.375-2.01-0.246c-0.002-0.004-0.01-0.014-0.012-0.018c0,0-0.32-0.422-0.922-1.213
			c-0.633-0.773-1.416-1.99-2.412-3.537c-0.453-0.797-0.951-1.678-1.496-2.639c-0.502-0.977-1.025-2.045-1.582-3.184
			c-1.029-2.312-2.139-4.943-3.119-7.883c-1.037-2.924-1.922-6.156-2.804-9.582c-0.807-3.443-1.602-7.086-2.199-10.891
			c-0.62-3.801-1.137-7.744-1.488-11.768c-0.392-4.02-0.588-8.117-0.703-12.213c-0.09-4.098-0.048-8.197,0.128-12.226
			c0.192-4.028,0.482-7.988,0.938-11.802c0.407-3.819,1.017-7.485,1.645-10.948c0.324-1.729,0.704-3.4,1.04-5.021
			c0.402-1.607,0.763-3.167,1.161-4.65c0.43-1.476,0.806-2.899,1.228-4.235c0.438-1.33,0.854-2.592,1.244-3.777
			c0.437-1.17,0.845-2.266,1.223-3.278c0.385-1.01,0.8-1.918,1.144-2.748c0.674-1.672,1.33-2.904,1.732-3.772
			c0.416-0.861,0.637-1.32,0.637-1.32c0.098-0.202,0.34-0.287,0.541-0.189C28.9,10.614,28.986,10.853,28.893,11.053z"/>
	</g>
	
		<use xlink:href="#新規シンボル"  width="38.464" height="13.497" x="-19.231" y="-6.748" transform="matrix(0.2931 -0.2694 -0.2694 -0.2931 33.2148 6.812)" overflow="visible"/>
	
		<use xlink:href="#新規シンボル"  width="38.464" height="13.497" x="-19.231" y="-6.748" transform="matrix(-0.4909 -0.2555 0.2555 -0.4909 19.5708 124.5713)" overflow="visible"/>
	
		<use xlink:href="#新規シンボル"  width="38.464" height="13.497" x="-19.231" y="-6.748" transform="matrix(0.2031 -0.5148 -0.5148 -0.2031 32.998 119.5537)" overflow="visible"/>
	
		<use xlink:href="#新規シンボル"  width="38.464" height="13.497" x="-19.231" y="-6.748" transform="matrix(-0.411 -0.3242 0.3242 -0.411 13.8677 107.4424)" overflow="visible"/>
	
		<use xlink:href="#新規シンボル"  width="38.464" height="13.497" x="-19.231" y="-6.748" transform="matrix(0.2797 -0.4424 -0.4424 -0.2797 27.2305 105.1553)" overflow="visible"/>
	
		<use xlink:href="#新規シンボル"  width="38.464" height="13.497" x="-19.231" y="-6.748" transform="matrix(-0.3516 -0.3229 0.3229 -0.3516 12.4282 92.2295)" overflow="visible"/>
	
		<use xlink:href="#新規シンボル"  width="38.464" height="13.497" x="-19.231" y="-6.748" transform="matrix(0.2846 -0.3833 -0.3833 -0.2846 24.7378 91.0615)" overflow="visible"/>
	
		<use xlink:href="#新規シンボル"  width="38.464" height="13.497" x="-19.231" y="-6.748" transform="matrix(-0.2744 -0.3813 0.3813 -0.2744 10.8335 58.7769)" overflow="visible"/>
	
		<use xlink:href="#新規シンボル"  width="38.464" height="13.497" x="-19.231" y="-6.748" transform="matrix(0.3507 -0.3126 -0.3126 -0.3507 22.9292 60.1069)" overflow="visible"/>
	
		<use xlink:href="#新規シンボル"  width="38.464" height="13.497" x="-19.231" y="-6.748" transform="matrix(-0.3145 -0.3431 0.3431 -0.3145 10.9819 74.6689)" overflow="visible"/>
	
		<use xlink:href="#新規シンボル"  width="38.464" height="13.497" x="-19.231" y="-6.748" transform="matrix(0.3085 -0.3485 -0.3485 -0.3085 23.0366 74.5654)" overflow="visible"/>
	
		<use xlink:href="#新規シンボル"  width="38.464" height="13.497" x="-19.231" y="-6.748" transform="matrix(-0.205 -0.3538 0.3538 -0.205 16.1968 28.2915)" overflow="visible"/>
	
		<use xlink:href="#新規シンボル"  width="38.464" height="13.497" x="-19.231" y="-6.748" transform="matrix(0.3305 -0.2407 -0.2407 -0.3305 26.5586 30.479)" overflow="visible"/>
	
		<use xlink:href="#新規シンボル"  width="38.464" height="13.497" x="-19.231" y="-6.748" transform="matrix(-0.2576 -0.3352 0.3352 -0.2576 12.9966 44.272)" overflow="visible"/>
	
		<use xlink:href="#新規シンボル"  width="38.464" height="13.497" x="-19.231" y="-6.748" transform="matrix(0.3066 -0.2911 -0.2911 -0.3066 23.9146 45.1274)" overflow="visible"/>
	
		<use xlink:href="#新規シンボル"  width="38.464" height="13.497" x="-19.231" y="-6.748" transform="matrix(-0.1046 -0.3279 0.3279 -0.1046 22.103 14.5923)" overflow="visible"/>
	
		<use xlink:href="#新規シンボル"  width="38.464" height="13.497" x="-19.231" y="-6.748" transform="matrix(0.3152 -0.1381 -0.1381 -0.3152 30.2266 18.2642)" overflow="visible"/>
</g>
</svg>
