<?xml version="1.0" encoding="utf-8"?>
<!-- Generator: Adobe Illustrator 16.0.4, SVG Export Plug-In . SVG Version: 6.00 Build 0)  -->
<!DOCTYPE svg PUBLIC "-//W3C//DTD SVG 1.1//EN" "http://www.w3.org/Graphics/SVG/1.1/DTD/svg11.dtd">
<svg version="1.1" id="レイヤー_1" xmlns="http://www.w3.org/2000/svg" xmlns:xlink="http://www.w3.org/1999/xlink" x="0px"
	 y="0px" width="42px" height="140px" viewBox="0 0 42 140" enable-background="new 0 0 42 140" xml:space="preserve">
<symbol  id="新規シンボル" viewBox="-19.231 -6.748 38.464 13.497">
	<g>
		<g>
			<path d="M-19.231,0C-13.96-4.219-7.277-6.748,0-6.748S13.961-4.219,19.232,0C13.961,4.22,7.277,6.749,0,6.749
				S-13.96,4.22-19.231,0z"/>
		</g>
	</g>
</symbol>
<g>
	<g>
		<path d="M15.624,10.707c0,0,0.222,0.459,0.637,1.32c0.403,0.868,1.059,2.101,1.733,3.773c0.343,0.83,0.759,1.738,1.144,2.748
			c0.378,1.012,0.786,2.107,1.223,3.277c0.391,1.186,0.807,2.448,1.244,3.778c0.423,1.335,0.798,2.759,1.228,4.235
			c0.398,1.483,0.759,3.043,1.162,4.65c0.336,1.621,0.716,3.292,1.039,5.022c0.629,3.463,1.237,7.129,1.645,10.948
			c0.456,3.814,0.746,7.774,0.938,11.802c0.177,4.029,0.218,8.128,0.129,12.226c-0.116,4.097-0.312,8.194-0.703,12.214
			c-0.353,4.021-0.869,7.967-1.489,11.767c-0.597,3.805-1.393,7.447-2.199,10.891c-0.882,3.426-1.767,6.659-2.804,9.582
			c-0.979,2.94-2.09,5.569-3.119,7.883c-0.557,1.14-1.079,2.207-1.581,3.185c-0.545,0.96-1.045,1.842-1.496,2.639
			c-0.997,1.546-1.78,2.763-2.414,3.536c-0.601,0.792-0.921,1.214-0.921,1.214c-0.478,0.63-1.375,0.753-2.004,0.275
			c-0.63-0.478-0.753-1.375-0.275-2.005c0.003-0.003,0.005-0.007,0.008-0.01l0.074-0.095c0,0,0.301-0.386,0.866-1.108
			c0.595-0.698,1.344-1.83,2.306-3.266c0.44-0.749,0.928-1.578,1.458-2.48c0.482-0.936,1.004-1.945,1.562-3.025
			c1.024-2.212,2.14-4.735,3.139-7.586c1.056-2.827,1.971-5.979,2.889-9.325c0.845-3.367,1.684-6.938,2.331-10.679
			c0.671-3.736,1.242-7.623,1.652-11.593c0.449-3.966,0.707-8.017,0.886-12.069c0.152-4.055,0.175-8.115,0.062-12.109
			c-0.128-3.993-0.353-7.922-0.745-11.708c-0.345-3.792-0.891-7.432-1.459-10.873c-0.294-1.719-0.645-3.38-0.952-4.992
			c-0.374-1.597-0.707-3.148-1.078-4.624c-0.402-1.467-0.752-2.885-1.149-4.214c-0.413-1.324-0.806-2.58-1.174-3.76
			c-0.414-1.165-0.801-2.255-1.159-3.264c-0.365-1.005-0.759-1.9-1.084-2.725c-0.634-1.649-1.276-2.908-1.664-3.778
			c-0.401-0.868-0.615-1.33-0.615-1.33c-0.095-0.203-0.006-0.444,0.197-0.539C15.29,10.422,15.528,10.508,15.624,10.707z"/>
	</g>
	
		<use xlink:href="#新規シンボル"  width="38.464" height="13.497" x="-19.231" y="-6.748" transform="matrix(-0.2931 -0.2694 0.2694 -0.2931 10.5703 6.812)" overflow="visible"/>
	
		<use xlink:href="#新規シンボル"  width="38.464" height="13.497" x="-19.231" y="-6.748" transform="matrix(0.4909 -0.2555 -0.2555 -0.4909 24.2148 124.5713)" overflow="visible"/>
	
		<use xlink:href="#新規シンボル"  width="38.464" height="13.497" x="-19.231" y="-6.748" transform="matrix(-0.2031 -0.5148 0.5148 -0.2031 10.7871 119.5537)" overflow="visible"/>
	
		<use xlink:href="#新規シンボル"  width="38.464" height="13.497" x="-19.231" y="-6.748" transform="matrix(0.411 -0.3242 -0.3242 -0.411 29.918 107.4424)" overflow="visible"/>
	
		<use xlink:href="#新規シンボル"  width="38.464" height="13.497" x="-19.231" y="-6.748" transform="matrix(-0.2797 -0.4424 0.4424 -0.2797 16.5547 105.1553)" overflow="visible"/>
	
		<use xlink:href="#新規シンボル"  width="38.464" height="13.497" x="-19.231" y="-6.748" transform="matrix(0.3516 -0.3229 -0.3229 -0.3516 31.3574 92.2295)" overflow="visible"/>
	
		<use xlink:href="#新規シンボル"  width="38.464" height="13.497" x="-19.231" y="-6.748" transform="matrix(-0.2846 -0.3833 0.3833 -0.2846 19.0469 91.0615)" overflow="visible"/>
	
		<use xlink:href="#新規シンボル"  width="38.464" height="13.497" x="-19.231" y="-6.748" transform="matrix(0.2744 -0.3813 -0.3813 -0.2744 32.9512 58.7769)" overflow="visible"/>
	
		<use xlink:href="#新規シンボル"  width="38.464" height="13.497" x="-19.231" y="-6.748" transform="matrix(-0.3507 -0.3126 0.3126 -0.3507 20.8555 60.1069)" overflow="visible"/>
	
		<use xlink:href="#新規シンボル"  width="38.464" height="13.497" x="-19.231" y="-6.748" transform="matrix(0.3145 -0.3431 -0.3431 -0.3145 32.8027 74.6689)" overflow="visible"/>
	
		<use xlink:href="#新規シンボル"  width="38.464" height="13.497" x="-19.231" y="-6.748" transform="matrix(-0.3085 -0.3485 0.3485 -0.3085 20.748 74.5654)" overflow="visible"/>
	
		<use xlink:href="#新規シンボル"  width="38.464" height="13.497" x="-19.231" y="-6.748" transform="matrix(0.205 -0.3538 -0.3538 -0.205 27.5879 28.2915)" overflow="visible"/>
	
		<use xlink:href="#新規シンボル"  width="38.464" height="13.497" x="-19.231" y="-6.748" transform="matrix(-0.3305 -0.2407 0.2407 -0.3305 17.2266 30.479)" overflow="visible"/>
	
		<use xlink:href="#新規シンボル"  width="38.464" height="13.497" x="-19.231" y="-6.748" transform="matrix(0.2576 -0.3352 -0.3352 -0.2576 30.7891 44.272)" overflow="visible"/>
	
		<use xlink:href="#新規シンボル"  width="38.464" height="13.497" x="-19.231" y="-6.748" transform="matrix(-0.3066 -0.2911 0.2911 -0.3066 19.8711 45.1274)" overflow="visible"/>
	
		<use xlink:href="#新規シンボル"  width="38.464" height="13.497" x="-19.231" y="-6.748" transform="matrix(0.1046 -0.3279 -0.3279 -0.1046 21.6816 14.5923)" overflow="visible"/>
	
		<use xlink:href="#新規シンボル"  width="38.464" height="13.497" x="-19.231" y="-6.748" transform="matrix(-0.3152 -0.1381 0.1381 -0.3152 13.5586 18.2642)" overflow="visible"/>
</g>
</svg>
